<svg xmlns="http://www.w3.org/2000/svg" xmlns:xlink="http://www.w3.org/1999/xlink" width="1024" zoomAndPan="magnify" viewBox="0 0 768 767.999994" height="1024" preserveAspectRatio="xMidYMid meet" version="1.0"><defs><clipPath id="id1"><path d="M 15.386719 15.386719 L 752.636719 15.386719 L 752.636719 752.636719 L 15.386719 752.636719 Z M 15.386719 15.386719 " clip-rule="nonzero"/></clipPath></defs><g clip-path="url(#id1)"><path fill="rgb(10.198975%, 27.839661%, 53.729248%)" d="M 752.636719 640.523438 C 752.636719 702.398438 702.484375 752.550781 640.617188 752.550781 L 127.441406 752.550781 C 65.574219 752.550781 15.414062 702.398438 15.414062 640.523438 L 15.414062 127.355469 C 15.414062 65.480469 65.574219 15.328125 127.441406 15.328125 L 640.613281 15.328125 C 702.484375 15.328125 752.636719 65.480469 752.636719 127.355469 Z M 752.636719 640.523438 " fill-opacity="1" fill-rule="nonzero"/></g><path fill="rgb(100%, 100%, 100%)" d="M 503.898438 441.21875 L 515.824219 348.785156 L 424.285156 348.785156 L 424.285156 289.765625 C 424.285156 263 431.75 244.761719 470.121094 244.761719 L 519.03125 244.738281 L 519.03125 162.066406 C 510.585938 160.9375 481.554688 158.421875 447.71875 158.421875 C 377.140625 158.421875 328.847656 201.507812 328.847656 280.621094 L 328.847656 348.785156 L 249.027344 348.785156 L 249.027344 441.222656 L 328.847656 441.222656 L 328.847656 678.398438 L 424.285156 678.398438 L 424.285156 441.21875 Z M 503.898438 441.21875 " fill-opacity="1" fill-rule="nonzero"/></svg>